<svg xmlns="http://www.w3.org/2000/svg" version="1.1" xmlns:xlink="http://www.w3.org/1999/xlink" xmlns:svgjs="http://svgjs.dev/svgjs" width="1000" height="1000"><g clip-path="url(#SvgjsClipPath1020)"><rect width="1000" height="1000" fill="#ffffff"></rect><g transform="matrix(43.75,0,0,43.75,150,150)"><svg xmlns="http://www.w3.org/2000/svg" version="1.1" xmlns:xlink="http://www.w3.org/1999/xlink" xmlns:svgjs="http://svgjs.dev/svgjs" width="16" height="16"><svg fill="none" height="16" viewBox="0 0 16 16" width="16" xmlns="http://www.w3.org/2000/svg"><g fill="#212121"><path d="m4.99998 8c.27615 0 .5-.22386.5-.5s-.22385-.5-.5-.5c-.27614 0-.5.22386-.5.5s.22386.5.5.5z"></path><path d="m6.49998 9.5c0 .27614-.22385.5-.5.5-.27614 0-.5-.22386-.5-.5s.22386-.5.5-.5c.27615 0 .5.22386.5.5z"></path><path d="m7.99998 10c.27615 0 .5-.22386.5-.5s-.22385-.5-.5-.5c-.27614 0-.5.22386-.5.5s.22386.5.5.5z"></path><path d="m10.5 9.5c0 .27614-.2239.5-.50002.5-.27614 0-.5-.22386-.5-.5s.22386-.5.5-.5c.27612 0 .50002.22386.50002.5z"></path><path d="m6.99998 8c.27615 0 .5-.22386.5-.5s-.22385-.5-.5-.5c-.27614 0-.5.22386-.5.5s.22386.5.5.5z"></path><path d="m9.49998 7.5c0 .27614-.22385.5-.5.5-.27614 0-.5-.22386-.5-.5s.22386-.5.5-.5c.27615 0 .5.22386.5.5z"></path><path d="m11 8c.2761 0 .5-.22386.5-.5s-.2239-.5-.5-.5c-.2762 0-.5.22386-.5.5s.2238.5.5.5z"></path><path d="m3.02248 5c-1.29451 0-2.247976 1.2111-1.94413 2.46944l.7244 2.99996c.21682.898 1.02038 1.5306 1.94412 1.5306h8.51883c.9233 0 1.7266-.632 1.9438-1.5294l.7263-3.00001c.3047-1.25864-.6489-2.47059-1.9438-2.47059zm-.97207 2.23472c-.15192-.62917.32481-1.23472.97207-1.23472h9.96952c.6474 0 1.1242.60598.9719 1.23529l-.7263 3.00001c-.1086.4487-.5103.7647-.9719.7647h-8.51883c-.46187 0-.86365-.3163-.97206-.7653z"></path></g></svg></svg></g></g><defs><clipPath id="SvgjsClipPath1020"><rect width="1000" height="1000" x="0" y="0" rx="350" ry="350"></rect></clipPath></defs></svg>